<svg width="95" height="32" viewBox="0 0 95 32" fill="none" xmlns="http://www.w3.org/2000/svg">
<path d="M37.5309 12.8436C37.9849 12.1711 38.607 11.6246 39.3972 11.2043C40.2043 10.7839 41.1206 10.5738 42.1463 10.5738C43.3401 10.5738 44.4161 10.868 45.3745 11.4565C46.3497 12.045 47.1148 12.8857 47.6696 13.9786C48.2413 15.0546 48.5271 16.3073 48.5271 17.7364C48.5271 19.1656 48.2413 20.4351 47.6696 21.5448C47.1148 22.6377 46.3497 23.4868 45.3745 24.0921C44.4161 24.6974 43.3401 25 42.1463 25C41.1038 25 40.1875 24.7982 39.3972 24.3947C38.6238 23.9744 38.0017 23.4363 37.5309 22.7806V24.773H34V6.10971H37.5309V12.8436ZM44.9206 17.7364C44.9206 16.8958 44.744 16.1728 44.3909 15.5675C44.0546 14.9454 43.6007 14.4746 43.029 14.1551C42.4741 13.8356 41.8689 13.6759 41.2131 13.6759C40.5742 13.6759 39.9689 13.8441 39.3972 14.1803C38.8424 14.4998 38.3884 14.9706 38.0353 15.5927C37.699 16.2148 37.5309 16.9462 37.5309 17.7869C37.5309 18.6276 37.699 19.359 38.0353 19.9811C38.3884 20.6032 38.8424 21.0824 39.3972 21.4187C39.9689 21.7381 40.5742 21.8979 41.2131 21.8979C41.8689 21.8979 42.4741 21.7297 43.029 21.3934C43.6007 21.0572 44.0546 20.578 44.3909 19.9559C44.744 19.3338 44.9206 18.5939 44.9206 17.7364Z" fill="white"/>
<path d="M52.127 9.13619C51.5049 9.13619 50.9836 8.94283 50.5633 8.55612C50.1598 8.15259 49.958 7.65658 49.958 7.0681C49.958 6.47961 50.1598 5.99201 50.5633 5.6053C50.9836 5.20177 51.5049 5 52.127 5C52.7491 5 53.2619 5.20177 53.6654 5.6053C54.0858 5.99201 54.2959 6.47961 54.2959 7.0681C54.2959 7.65658 54.0858 8.15259 53.6654 8.55612C53.2619 8.94283 52.7491 9.13619 52.127 9.13619ZM53.8672 10.8008V24.773H50.3363V10.8008H53.8672Z" fill="white"/>
<path d="M64.3419 10.599C66.0064 10.599 67.3515 11.1286 68.3772 12.1879C69.4028 13.2303 69.9156 14.6931 69.9156 16.5763V24.773H66.3847V17.0555C66.3847 15.9458 66.1073 15.0967 65.5525 14.5082C64.9976 13.9029 64.241 13.6003 63.2826 13.6003C62.3074 13.6003 61.534 13.9029 60.9623 14.5082C60.4074 15.0967 60.13 15.9458 60.13 17.0555V24.773H56.5991V10.8008H60.13V12.541C60.6008 11.9357 61.1977 11.4649 61.9207 11.1286C62.6605 10.7755 63.4675 10.599 64.3419 10.599Z" fill="white"/>
<path d="M78.9228 13.7011H76.4764V24.773H72.895V13.7011H71.3061V10.8008H72.895V10.0946C72.895 8.37957 73.3826 7.11854 74.3578 6.31148C75.333 5.50441 76.8042 5.1261 78.7714 5.17655V8.15259C77.9139 8.13577 77.317 8.27869 76.9808 8.58134C76.6445 8.88399 76.4764 9.43043 76.4764 10.2207V10.8008H78.9228V13.7011Z" fill="white"/>
<path d="M88.1971 10.599C89.8616 10.599 91.2067 11.1286 92.2324 12.1879C93.258 13.2303 93.7708 14.6931 93.7708 16.5763V24.773H90.2399V17.0555C90.2399 15.9458 89.9625 15.0967 89.4077 14.5082C88.8528 13.9029 88.0962 13.6003 87.1378 13.6003C86.1626 13.6003 85.3892 13.9029 84.8175 14.5082C84.2626 15.0967 83.9852 15.9458 83.9852 17.0555V24.773H80.4543V10.8008H83.9852V12.541C84.456 11.9357 85.0529 11.4649 85.7759 11.1286C86.5157 10.7755 87.3228 10.599 88.1971 10.599Z" fill="white"/>
<g clip-path="url(#clip0_2_1618)">
<path fill-rule="evenodd" clip-rule="evenodd" d="M11.0306 10.2936L9.75342 12.4447L8.53822 10.3911L9.809 8.23997H18.6854L20.5701 5.05507H7.92268L5.43037 9.26678C7.30001 12.4135 9.16675 15.5602 11.0306 18.707H14.8C13.8533 17.1104 12.9071 15.5141 11.9614 13.918L11.6993 13.4762H20.3382L24.0537 19.7438L20.3382 26.0014H6.70752L3.03021 19.6835L4.87681 16.5589L6.09993 18.6118L5.43832 19.7361L7.93063 23.9478H19.1159L21.6161 19.7361L19.1238 15.5244H15.3544C16.1539 16.8811 16.954 18.2375 17.7546 19.5937L17.8451 19.7338L17.2375 20.7606H9.81536C7.56872 16.9758 5.325 13.1937 3.08419 9.41457L3 9.26446L6.70752 2.9968H24.23L19.9101 10.2936H11.0306Z" fill="#7F46F0"/>
</g>
<defs>
<clipPath id="clip0_2_1618">
<rect width="21.2308" height="23" fill="white" transform="translate(3 3)"/>
</clipPath>
</defs>
</svg>
